<?xml version="1.0" standalone="no"?>
<!DOCTYPE svg PUBLIC "-//W3C//DTD SVG 20010904//EN"
 "http://www.w3.org/TR/2001/REC-SVG-20010904/DTD/svg10.dtd">
<svg version="1.0" xmlns="http://www.w3.org/2000/svg"
 width="160.000000pt" height="160.000000pt" viewBox="0 0 160.000000 160.000000"
 preserveAspectRatio="xMidYMid meet">
<metadata>
Created by potrace 1.14, written by Peter Selinger 2001-2017
</metadata>
<g transform="translate(0.000000,160.000000) scale(0.100000,-0.100000)"
fill="#000000" stroke="none">
<path d="M17 1583 c-9 -8 -9 -773 -1 -773 4 0 33 26 65 58 l59 57 0 268 0 267
58 0 c31 1 151 0 266 0 l208 -1 59 58 c32 32 59 61 59 66 0 9 -764 10 -773 0z"/>
<path d="M810 1584 c0 -4 26 -33 58 -65 l57 -59 268 0 267 0 0 -263 0 -263 65
-64 65 -65 -2 390 -3 390 -387 3 c-214 1 -388 -1 -388 -4z"/>
<path d="M747 1522 c-26 -26 -47 -51 -47 -55 0 -14 29 -7 42 11 7 9 23 25 35
36 22 18 23 18 49 -3 15 -12 23 -21 19 -21 -5 0 -17 7 -27 17 -17 15 -19 15
-38 -2 -32 -29 -24 -35 45 -35 36 0 65 3 65 7 0 9 -82 93 -90 93 -3 0 -27 -22
-53 -48z"/>
<path d="M155 1438 c-3 -7 -4 -299 -3 -648 l3 -635 645 0 645 0 0 645 0 645
-643 3 c-509 2 -644 0 -647 -10z m1265 -637 c0 -467 3 -617 12 -630 10 -13 10
-14 -2 -3 -18 16 -1239 18 -1258 2 -9 -7 -9 -7 -2 2 6 8 10 233 10 630 l0 618
620 -2 621 -3 -1 -614z"/>
<path d="M196 1402 c-5 -9 -6 -1205 -1 -1200 2 2 5 102 6 222 1 120 5 233 9
252 5 19 4 34 -1 34 -5 0 -9 41 -9 90 0 50 4 90 9 90 5 0 6 15 1 34 -4 19 -8
134 -9 256 l-2 221 221 -2 c122 -1 237 -5 256 -9 19 -4 34 -4 34 0 0 4 156 8
347 9 190 0 348 3 351 5 2 3 -269 4 -602 4 -333 0 -608 -3 -610 -6z"/>
<path d="M341 1364 c0 -11 3 -14 6 -6 3 7 2 16 -1 19 -3 4 -6 -2 -5 -13z"/>
<path d="M946 1367 c2 -7 14 -19 27 -26 21 -13 21 -12 -2 13 -27 29 -33 32
-25 13z"/>
<path d="M1240 1366 c0 -8 4 -17 9 -20 5 -4 7 3 4 14 -6 23 -13 26 -13 6z"/>
<path d="M230 1360 c0 -5 5 -10 10 -10 6 0 10 5 10 10 0 6 -4 10 -10 10 -5 0
-10 -4 -10 -10z"/>
<path d="M995 1360 c-3 -5 -1 -10 4 -10 6 0 11 5 11 10 0 6 -2 10 -4 10 -3 0
-8 -4 -11 -10z"/>
<path d="M1340 1360 c0 -5 5 -10 10 -10 6 0 10 5 10 10 0 6 -4 10 -10 10 -5 0
-10 -4 -10 -10z"/>
<path d="M440 1340 c0 -11 2 -20 4 -20 2 0 6 9 9 20 3 11 1 20 -4 20 -5 0 -9
-9 -9 -20z"/>
<path d="M587 1351 c4 -3 10 -10 14 -14 3 -4 11 -2 17 5 8 10 5 13 -15 14 -13
1 -21 -1 -16 -5z"/>
<path d="M756 1344 c-23 -23 -20 -30 4 -9 11 10 20 20 20 22 0 7 -9 2 -24 -13z"/>
<path d="M1137 1340 c3 -11 7 -20 9 -20 2 0 4 9 4 20 0 11 -4 20 -9 20 -5 0
-7 -9 -4 -20z"/>
<path d="M270 1333 c0 -10 4 -14 8 -8 4 6 11 13 16 18 5 4 2 7 -7 7 -10 0 -17
-8 -17 -17z"/>
<path d="M500 1333 c0 -10 4 -14 8 -8 4 6 11 13 16 18 5 4 2 7 -7 7 -10 0 -17
-8 -17 -17z"/>
<path d="M796 1334 c-6 -15 -4 -15 11 -3 10 7 20 15 22 16 2 2 -3 3 -11 3 -9
0 -19 -7 -22 -16z"/>
<path d="M1058 1343 c7 -3 16 -2 19 1 4 3 -2 6 -13 5 -11 0 -14 -3 -6 -6z"/>
<path d="M1296 1335 c4 -8 7 -15 9 -15 2 0 5 7 9 15 3 9 0 15 -9 15 -9 0 -12
-6 -9 -15z"/>
<path d="M650 1325 c-7 -9 -11 -17 -9 -20 3 -2 10 5 17 15 14 24 10 26 -8 5z"/>
<path d="M251 1314 c0 -11 3 -14 6 -6 3 7 2 16 -1 19 -3 4 -6 -2 -5 -13z"/>
<path d="M300 1317 c0 -8 -8 -18 -17 -20 -17 -4 -17 -5 0 -6 18 -1 35 25 23
36 -3 4 -6 -1 -6 -10z"/>
<path d="M547 1311 c-4 -17 -3 -21 5 -13 5 5 8 16 6 23 -3 8 -7 3 -11 -10z"/>
<path d="M846 1316 c3 -8 13 -17 22 -21 13 -5 13 -2 -3 15 -21 24 -26 25 -19
6z"/>
<path d="M940 1311 c0 -10 19 -25 25 -20 1 2 -3 10 -11 17 -8 7 -14 8 -14 3z"/>
<path d="M706 1294 c-23 -23 -20 -30 4 -9 11 10 20 20 20 22 0 7 -9 2 -24 -13z"/>
<path d="M756 1294 c-23 -23 -20 -30 4 -9 11 10 20 20 20 22 0 7 -9 2 -24 -13z"/>
<path d="M1151 1294 c0 -11 3 -14 6 -6 3 7 2 16 -1 19 -3 4 -6 -2 -5 -13z"/>
<path d="M796 1284 c-6 -15 -4 -15 11 -3 10 7 20 15 22 16 2 2 -3 3 -11 3 -9
0 -19 -7 -22 -16z"/>
<path d="M1298 1293 c7 -3 16 -2 19 1 4 3 -2 6 -13 5 -11 0 -14 -3 -6 -6z"/>
<path d="M846 1266 c3 -9 13 -16 22 -16 8 0 13 1 11 3 -2 1 -12 9 -22 16 -15
12 -17 12 -11 -3z"/>
<path d="M228 1253 c7 -3 16 -2 19 1 4 3 -2 6 -13 5 -11 0 -14 -3 -6 -6z"/>
<path d="M656 1244 c-23 -23 -20 -30 4 -9 11 10 20 20 20 22 0 7 -9 2 -24 -13z"/>
<path d="M706 1244 c-23 -23 -20 -30 4 -9 11 10 20 20 20 22 0 7 -9 2 -24 -13z"/>
<path d="M1348 1253 c7 -3 16 -2 19 1 4 3 -2 6 -13 5 -11 0 -14 -3 -6 -6z"/>
<path d="M346 1235 c-3 -8 2 -21 10 -30 21 -21 27 -19 12 5 -11 17 -10 22 2
30 13 8 13 10 -1 10 -9 0 -19 -7 -23 -15z"/>
<path d="M446 1234 c-6 -15 -4 -15 11 -3 10 7 20 15 22 16 2 2 -3 3 -11 3 -9
0 -19 -7 -22 -16z"/>
<path d="M546 1234 c-6 -15 -4 -15 11 -3 10 7 20 15 22 16 2 2 -3 3 -11 3 -9
0 -19 -7 -22 -16z"/>
<path d="M783 1243 c9 -2 23 -2 30 0 6 3 -1 5 -18 5 -16 0 -22 -2 -12 -5z"/>
<path d="M896 1234 c-6 -15 -4 -15 11 -3 10 7 20 15 22 16 2 2 -3 3 -11 3 -9
0 -19 -7 -22 -16z"/>
<path d="M1000 1240 c0 -5 7 -7 15 -4 8 4 15 8 15 10 0 2 -7 4 -15 4 -8 0 -15
-4 -15 -10z"/>
<path d="M1096 1235 c-3 -8 2 -21 10 -30 21 -21 27 -19 12 5 -11 17 -10 22 2
30 13 8 13 10 -1 10 -9 0 -19 -7 -23 -15z"/>
<path d="M1196 1234 c-6 -15 -4 -15 11 -3 10 7 20 15 22 16 2 2 -3 3 -11 3 -9
0 -19 -7 -22 -16z"/>
<path d="M396 1216 c3 -9 13 -16 22 -16 8 0 13 1 11 3 -2 1 -12 9 -22 16 -15
12 -17 12 -11 -3z"/>
<path d="M1046 1216 c3 -8 13 -17 22 -21 13 -5 13 -2 -3 15 -21 24 -26 25 -19
6z"/>
<path d="M1146 1216 c3 -9 13 -16 22 -16 8 0 13 1 11 3 -2 1 -12 9 -22 16 -15
12 -17 12 -11 -3z"/>
<path d="M915 1204 l-40 -14 38 6 c24 3 37 2 33 -5 -4 -5 6 -5 24 2 20 7 25
14 17 19 -15 10 -23 9 -72 -8z"/>
<path d="M1300 1205 c0 -8 4 -15 10 -15 5 0 7 7 4 15 -4 8 -8 15 -10 15 -2 0
-4 -7 -4 -15z"/>
<path d="M456 1195 c-18 -18 -11 -45 13 -45 14 0 14 2 1 10 -12 8 -13 13 -2
30 15 24 9 26 -12 5z"/>
<path d="M506 1194 c-23 -23 -20 -30 4 -9 11 10 20 20 20 22 0 7 -9 2 -24 -13z"/>
<path d="M556 1194 c-23 -23 -20 -30 4 -9 11 10 20 20 20 22 0 7 -9 2 -24 -13z"/>
<path d="M606 1194 c-23 -23 -20 -30 4 -9 11 10 20 20 20 22 0 7 -9 2 -24 -13z"/>
<path d="M656 1194 c-23 -23 -20 -30 4 -9 11 10 20 20 20 22 0 7 -9 2 -24 -13z"/>
<path d="M745 1199 c-11 -16 -1 -19 13 -3 7 8 8 14 3 14 -5 0 -13 -5 -16 -11z"/>
<path d="M1206 1195 c-17 -17 -12 -40 10 -49 11 -4 12 -2 2 14 -9 14 -9 22 1
34 17 20 7 21 -13 1z"/>
<path d="M788 1193 c7 -3 16 -2 19 1 4 3 -2 6 -13 5 -11 0 -14 -3 -6 -6z"/>
<path d="M396 1166 c3 -8 13 -17 22 -21 13 -5 13 -2 -3 15 -21 24 -26 25 -19
6z"/>
<path d="M702 1155 c0 -16 2 -22 5 -12 2 9 2 23 0 30 -3 6 -5 -1 -5 -18z"/>
<path d="M996 1166 c3 -8 13 -17 22 -21 13 -5 13 -2 -3 15 -21 24 -26 25 -19
6z"/>
<path d="M1046 1166 c3 -8 13 -17 22 -21 13 -5 13 -2 -3 15 -21 24 -26 25 -19
6z"/>
<path d="M1096 1166 c3 -9 13 -16 22 -16 8 0 13 1 11 3 -2 1 -12 9 -22 16 -15
12 -17 12 -11 -3z"/>
<path d="M751 1154 c0 -11 3 -14 6 -6 3 7 2 16 -1 19 -3 4 -6 -2 -5 -13z"/>
<path d="M240 1151 c0 -5 9 -7 20 -4 11 3 20 7 20 9 0 2 -9 4 -20 4 -11 0 -20
-4 -20 -9z"/>
<path d="M506 1145 c-18 -18 -11 -45 13 -45 14 0 14 2 1 10 -12 8 -13 13 -2
30 15 24 9 26 -12 5z"/>
<path d="M556 1144 c-23 -23 -20 -30 4 -9 11 10 20 20 20 22 0 7 -9 2 -24 -13z"/>
<path d="M606 1144 c-23 -23 -20 -30 4 -9 11 10 20 20 20 22 0 7 -9 2 -24 -13z"/>
<path d="M656 1145 c-18 -18 -11 -45 13 -45 14 0 14 2 1 10 -12 8 -13 13 -2
30 15 24 9 26 -12 5z"/>
<path d="M790 1150 c-9 -6 -10 -10 -3 -10 6 0 15 5 18 10 8 12 4 12 -15 0z"/>
<path d="M906 1152 c-2 -4 -7 -37 -10 -72 -5 -65 -2 -58 13 33 8 46 7 55 -3
39z"/>
<path d="M950 1156 c0 -2 7 -7 16 -10 8 -3 12 -2 9 4 -6 10 -25 14 -25 6z"/>
<path d="M1300 1156 c0 -2 11 -6 25 -8 14 -3 25 -1 25 3 0 5 -11 9 -25 9 -14
0 -25 -2 -25 -4z"/>
<path d="M346 1135 c-3 -8 2 -21 10 -30 21 -21 27 -19 12 5 -11 17 -10 22 2
30 13 8 13 10 -1 10 -9 0 -19 -7 -23 -15z"/>
<path d="M1146 1135 c-3 -8 2 -21 10 -30 21 -21 27 -19 12 5 -11 17 -10 22 2
30 13 8 13 10 -1 10 -9 0 -19 -7 -23 -15z"/>
<path d="M396 1116 c3 -8 13 -17 22 -21 13 -5 13 -2 -3 15 -21 24 -26 25 -19
6z"/>
<path d="M446 1115 c4 -8 11 -15 16 -15 6 0 5 6 -2 15 -7 8 -14 15 -16 15 -2
0 -1 -7 2 -15z"/>
<path d="M870 1117 c0 -9 -4 -17 -8 -17 -11 0 -42 -94 -42 -126 0 -45 15 -31
16 15 1 30 10 63 24 89 13 23 21 45 17 49 -4 3 -7 -1 -7 -10z"/>
<path d="M946 1116 c3 -8 13 -17 22 -21 13 -5 13 -2 -3 15 -21 24 -26 25 -19
6z"/>
<path d="M996 1116 c3 -8 13 -17 22 -21 13 -5 13 -2 -3 15 -21 24 -26 25 -19
6z"/>
<path d="M1046 1116 c3 -9 13 -16 22 -16 8 0 13 1 11 3 -2 1 -12 9 -22 16 -15
12 -17 12 -11 -3z"/>
<path d="M1196 1116 c3 -9 13 -16 22 -16 8 0 13 1 11 3 -2 1 -12 9 -22 16 -15
12 -17 12 -11 -3z"/>
<path d="M560 1100 c-8 -5 -12 -12 -9 -15 4 -3 12 1 19 10 14 17 11 19 -10 5z"/>
<path d="M1298 1098 c5 -5 16 -8 23 -6 8 3 3 7 -10 11 -17 4 -21 3 -13 -5z"/>
<path d="M250 1083 c0 -10 4 -14 8 -8 4 6 11 13 16 18 5 4 2 7 -7 7 -10 0 -17
-8 -17 -17z"/>
<path d="M591 1078 l-14 -23 24 20 c13 11 26 21 28 22 2 2 -2 3 -10 3 -8 0
-20 -10 -28 -22z"/>
<path d="M788 1093 c7 -3 16 -2 19 1 4 3 -2 6 -13 5 -11 0 -14 -3 -6 -6z"/>
<path d="M941 1073 c8 -13 20 -23 28 -23 8 0 12 1 10 3 -2 1 -15 11 -28 22
l-24 20 14 -22z"/>
<path d="M646 1066 c3 -8 13 -17 22 -21 13 -5 13 -2 -3 15 -21 24 -26 25 -19
6z"/>
<path d="M696 1065 c4 -8 13 -15 21 -15 12 0 12 2 -1 15 -8 8 -17 15 -20 15
-3 0 -3 -7 0 -15z"/>
<path d="M1196 1066 c3 -8 13 -17 22 -21 13 -5 13 -2 -3 15 -21 24 -26 25 -19
6z"/>
<path d="M1036 1054 c-5 -13 -3 -14 6 -7 7 6 20 13 28 16 10 4 8 6 -6 6 -12 1
-25 -6 -28 -15z"/>
<path d="M1135 1060 c16 -9 14 -9 -13 -5 -20 3 -31 1 -27 -5 3 -6 -1 -10 -11
-10 -9 0 -58 -40 -108 -89 -83 -81 -137 -116 -219 -145 -23 -8 -17 -30 9 -33
16 -2 16 -1 2 3 -27 8 -22 24 7 24 14 0 25 4 25 9 0 4 20 16 45 25 30 12 71
45 128 101 83 84 116 105 163 105 30 0 28 24 -2 27 -18 3 -18 2 1 -7z"/>
<path d="M285 1050 c-16 -7 -17 -9 -3 -9 9 -1 20 4 23 9 7 11 7 11 -20 0z"/>
<path d="M356 1045 c-15 -15 -12 -45 5 -45 4 0 6 7 3 15 -4 8 -1 22 6 30 16
20 6 19 -14 0z"/>
<path d="M485 1050 c27 -12 43 -12 25 0 -8 5 -22 9 -30 9 -10 0 -8 -3 5 -9z"/>
<path d="M546 1047 c3 -10 9 -15 12 -12 3 3 0 11 -7 18 -10 9 -11 8 -5 -6z"/>
<path d="M596 1034 c-6 -15 -4 -15 11 -3 10 7 20 15 22 16 2 2 -3 3 -11 3 -9
0 -19 -7 -22 -16z"/>
<path d="M746 1034 c-5 -14 -4 -15 9 -4 17 14 19 20 6 20 -5 0 -12 -7 -15 -16z"/>
<path d="M796 1033 c-6 -14 -5 -15 5 -6 7 7 10 15 7 18 -3 3 -9 -2 -12 -12z"/>
<path d="M1298 1043 c7 -3 16 -2 19 1 4 3 -2 6 -13 5 -11 0 -14 -3 -6 -6z"/>
<path d="M696 1016 c3 -9 13 -16 22 -16 8 0 13 1 11 3 -2 1 -12 9 -22 16 -15
12 -17 12 -11 -3z"/>
<path d="M1345 1019 c-4 -6 -5 -12 -2 -15 2 -3 7 2 10 11 7 17 1 20 -8 4z"/>
<path d="M244 997 c1 -20 4 -23 14 -15 7 6 9 14 5 17 -4 4 -11 10 -14 14 -4 5
-6 -3 -5 -16z"/>
<path d="M392 995 c0 -16 2 -22 5 -12 2 9 2 23 0 30 -3 6 -5 -1 -5 -18z"/>
<path d="M965 1005 c-16 -8 -23 -14 -15 -14 8 0 26 6 40 14 32 18 15 18 -25 0z"/>
<path d="M1192 995 c0 -16 2 -22 5 -12 2 9 2 23 0 30 -3 6 -5 -1 -5 -18z"/>
<path d="M441 994 c0 -11 3 -14 6 -6 3 7 2 16 -1 19 -3 4 -6 -2 -5 -13z"/>
<path d="M541 994 c0 -11 3 -14 6 -6 3 7 2 16 -1 19 -3 4 -6 -2 -5 -13z"/>
<path d="M606 994 c-23 -23 -20 -30 4 -9 11 10 20 20 20 22 0 7 -9 2 -24 -13z"/>
<path d="M756 994 c-23 -23 -20 -30 4 -9 11 10 20 20 20 22 0 7 -9 2 -24 -13z"/>
<path d="M1090 995 c0 -9 6 -12 15 -9 8 4 15 10 15 15 0 5 -7 9 -15 9 -8 0
-15 -7 -15 -15z"/>
<path d="M1141 994 c0 -11 3 -14 6 -6 3 7 2 16 -1 19 -3 4 -6 -2 -5 -13z"/>
<path d="M646 984 c-6 -15 -4 -15 11 -3 10 7 20 15 22 16 2 2 -3 3 -11 3 -9 0
-19 -7 -22 -16z"/>
<path d="M1346 965 c4 -8 11 -15 16 -15 6 0 5 6 -2 15 -7 8 -14 15 -16 15 -2
0 -1 -7 2 -15z"/>
<path d="M1142 954 c-7 -8 -8 -14 -3 -14 10 0 25 19 20 25 -2 1 -10 -3 -17
-11z"/>
<path d="M1296 962 c-3 -6 -1 -14 5 -17 14 -9 20 -2 10 14 -6 8 -11 9 -15 3z"/>
<path d="M269 943 c-13 -17 -13 -17 6 -3 11 8 22 16 24 17 2 2 0 3 -6 3 -6 0
-17 -8 -24 -17z"/>
<path d="M485 950 c27 -12 43 -12 25 0 -8 5 -22 9 -30 9 -10 0 -8 -3 5 -9z"/>
<path d="M606 944 c-23 -23 -20 -30 4 -9 11 10 20 20 20 22 0 7 -9 2 -24 -13z"/>
<path d="M660 950 c-8 -5 -12 -12 -9 -15 4 -3 12 1 19 10 14 17 11 19 -10 5z"/>
<path d="M710 950 c-8 -5 -12 -12 -9 -15 4 -3 12 1 19 10 14 17 11 19 -10 5z"/>
<path d="M760 950 c-9 -6 -10 -10 -3 -10 6 0 15 5 18 10 8 12 4 12 -15 0z"/>
<path d="M1098 953 c7 -3 16 -2 19 1 4 3 -2 6 -13 5 -11 0 -14 -3 -6 -6z"/>
<path d="M346 934 c-6 -15 -4 -15 11 -3 10 7 20 15 22 16 2 2 -3 3 -11 3 -9 0
-19 -7 -22 -16z"/>
<path d="M718 915 c-48 -6 -91 -15 -95 -19 -5 -5 1 -6 12 -3 11 3 52 9 91 12
39 4 77 11 85 16 8 5 10 8 4 7 -5 0 -49 -6 -97 -13z"/>
<path d="M1200 910 c0 -6 7 -10 15 -10 8 0 15 2 15 4 0 2 -7 6 -15 10 -8 3
-15 1 -15 -4z"/>
<path d="M306 894 c-23 -23 -20 -30 4 -9 11 10 20 20 20 22 0 7 -9 2 -24 -13z"/>
<path d="M463 903 c9 -2 25 -2 35 0 9 3 1 5 -18 5 -19 0 -27 -2 -17 -5z"/>
<path d="M556 894 c-23 -23 -20 -30 4 -9 11 10 20 20 20 22 0 7 -9 2 -24 -13z"/>
<path d="M1093 903 c9 -2 23 -2 30 0 6 3 -1 5 -18 5 -16 0 -22 -2 -12 -5z"/>
<path d="M346 884 c-6 -15 -4 -15 11 -3 10 7 20 15 22 16 2 2 -3 3 -11 3 -9 0
-19 -7 -22 -16z"/>
<path d="M1046 883 c-6 -14 -5 -15 5 -6 7 7 10 15 7 18 -3 3 -9 -2 -12 -12z"/>
<path d="M1146 884 c-6 -15 -4 -15 11 -3 10 7 20 15 22 16 2 2 -3 3 -11 3 -9
0 -19 -7 -22 -16z"/>
<path d="M1246 884 c-6 -15 -4 -15 11 -3 10 7 20 15 22 16 2 2 -3 3 -11 3 -9
0 -19 -7 -22 -16z"/>
<path d="M446 866 c3 -9 13 -16 22 -16 8 0 13 1 11 3 -2 1 -12 9 -22 16 -15
12 -17 12 -11 -3z"/>
<path d="M590 861 c-5 -11 -9 -37 -9 -58 l2 -38 6 45 c4 25 10 51 14 58 5 6 6
12 3 12 -3 0 -10 -9 -16 -19z"/>
<path d="M996 866 c3 -8 13 -17 22 -21 13 -5 13 -2 -3 15 -21 24 -26 25 -19 6z"/>
<path d="M1296 866 c3 -8 13 -17 22 -21 13 -5 13 -2 -3 15 -21 24 -26 25 -19
6z"/>
<path d="M950 861 c0 -5 7 -12 16 -15 14 -5 15 -4 4 9 -14 17 -20 19 -20 6z"/>
<path d="M256 844 c-23 -23 -20 -30 4 -9 11 10 20 20 20 22 0 7 -9 2 -24 -13z"/>
<path d="M306 844 c-23 -23 -20 -30 4 -9 11 10 20 20 20 22 0 7 -9 2 -24 -13z"/>
<path d="M356 844 c-23 -23 -20 -30 4 -9 11 10 20 20 20 22 0 7 -9 2 -24 -13z"/>
<path d="M506 844 c-23 -23 -20 -30 4 -9 11 10 20 20 20 22 0 7 -9 2 -24 -13z"/>
<path d="M1106 844 c-23 -23 -20 -30 4 -9 11 10 20 20 20 22 0 7 -9 2 -24 -13z"/>
<path d="M1156 844 c-23 -23 -20 -30 4 -9 11 10 20 20 20 22 0 7 -9 2 -24 -13z"/>
<path d="M1206 844 c-23 -23 -20 -30 4 -9 11 10 20 20 20 22 0 7 -9 2 -24 -13z"/>
<path d="M396 834 c-6 -15 -4 -15 11 -3 10 7 20 15 22 16 2 2 -3 3 -11 3 -9 0
-19 -7 -22 -16z"/>
<path d="M546 833 c-6 -14 -5 -15 5 -6 7 7 10 15 7 18 -3 3 -9 -2 -12 -12z"/>
<path d="M1249 843 c-5 -55 -3 -71 9 -61 7 6 10 19 6 31 -4 12 -1 23 7 28 11
7 10 9 -3 9 -10 0 -18 -3 -19 -7z"/>
<path d="M948 805 c3 -19 8 -23 15 -16 8 8 7 16 -5 27 -14 14 -15 14 -10 -11z"/>
<path d="M996 816 c3 -8 13 -17 22 -21 13 -5 13 -2 -3 15 -21 24 -26 25 -19 6z"/>
<path d="M1045 800 c0 -26 2 -27 15 -15 13 13 13 17 0 30 -13 13 -15 11 -15
-15z"/>
<path d="M1295 800 c0 -26 2 -27 15 -15 13 13 13 17 0 30 -13 13 -15 11 -15
-15z"/>
<path d="M1345 800 c0 -26 2 -27 15 -15 13 13 13 17 0 30 -13 13 -15 11 -15
-15z"/>
<path d="M256 794 c-23 -23 -20 -30 4 -9 11 10 20 20 20 22 0 7 -9 2 -24 -13z"/>
<path d="M306 794 c-23 -23 -20 -30 4 -9 11 10 20 20 20 22 0 7 -9 2 -24 -13z"/>
<path d="M356 794 c-23 -23 -20 -30 4 -9 11 10 20 20 20 22 0 7 -9 2 -24 -13z"/>
<path d="M406 794 c-23 -23 -20 -30 4 -9 11 10 20 20 20 22 0 7 -9 2 -24 -13z"/>
<path d="M456 794 c-23 -23 -20 -30 4 -9 11 10 20 20 20 22 0 7 -9 2 -24 -13z"/>
<path d="M506 794 c-23 -23 -20 -30 4 -9 11 10 20 20 20 22 0 7 -9 2 -24 -13z"/>
<path d="M885 800 c-4 -6 1 -7 11 -3 14 5 16 3 10 -13 -5 -14 -4 -16 5 -7 12
12 5 33 -11 33 -5 0 -12 -4 -15 -10z"/>
<path d="M1106 794 c-23 -23 -20 -30 4 -9 11 10 20 20 20 22 0 7 -9 2 -24 -13z"/>
<path d="M1156 794 c-23 -23 -20 -30 4 -9 11 10 20 20 20 22 0 7 -9 2 -24 -13z"/>
<path d="M546 783 c-6 -14 -5 -15 5 -6 7 7 10 15 7 18 -3 3 -9 -2 -12 -12z"/>
<path d="M684 790 c-12 -4 -24 -18 -27 -29 -3 -12 -1 -19 4 -15 5 3 9 11 9 18
0 7 12 17 28 23 15 6 23 11 17 11 -5 1 -20 -3 -31 -8z"/>
<path d="M1199 793 c-5 -55 -3 -71 9 -61 7 6 10 19 6 31 -4 12 -1 23 7 28 11
7 10 9 -3 9 -10 0 -18 -3 -19 -7z"/>
<path d="M820 770 l-35 -7 35 -3 35 -2 -29 -7 c-42 -9 -43 -29 -4 -46 l33 -15
-60 5 -60 5 70 -16 c75 -16 159 -11 152 9 -2 7 -20 11 -46 9 -43 -4 -111 13
-111 27 0 5 19 12 43 16 26 5 35 10 23 12 -15 4 -16 7 -5 14 16 10 9 10 -41
-1z m115 -80 c-11 -5 -36 -8 -55 -8 l-35 1 40 7 c57 10 74 10 50 0z"/>
<path d="M997 762 c3 -12 -1 -30 -8 -40 -7 -9 -2 -7 11 5 23 21 23 24 8 40
-16 15 -17 15 -11 -5z"/>
<path d="M689 753 c-13 -16 -12 -17 4 -4 9 7 17 15 17 17 0 8 -8 3 -21 -13z"/>
<path d="M306 744 c-23 -23 -20 -30 4 -9 11 10 20 20 20 22 0 7 -9 2 -24 -13z"/>
<path d="M356 744 c-23 -23 -20 -30 4 -9 11 10 20 20 20 22 0 7 -9 2 -24 -13z"/>
<path d="M506 744 c-23 -23 -20 -30 4 -9 11 10 20 20 20 22 0 7 -9 2 -24 -13z"/>
<path d="M580 750 c-10 -6 -11 -10 -2 -10 7 0 12 -14 12 -35 0 -19 -4 -35 -10
-35 -5 0 -10 14 -10 30 0 39 -17 39 -18 1 -1 -29 20 -47 39 -35 7 4 11 95 5
94 -1 0 -8 -5 -16 -10z"/>
<path d="M960 750 c-8 -5 -12 -12 -9 -15 4 -3 12 1 19 10 14 17 11 19 -10 5z"/>
<path d="M1106 744 c-23 -23 -20 -30 4 -9 11 10 20 20 20 22 0 7 -9 2 -24 -13z"/>
<path d="M1256 744 c-23 -23 -20 -30 4 -9 11 10 20 20 20 22 0 7 -9 2 -24 -13z"/>
<path d="M1306 744 c-23 -23 -20 -30 4 -9 11 10 20 20 20 22 0 7 -9 2 -24 -13z"/>
<path d="M896 734 c-5 -14 -4 -15 9 -4 17 14 19 20 6 20 -5 0 -12 -7 -15 -16z"/>
<path d="M1148 738 c-6 -17 1 -38 13 -38 4 0 6 7 2 16 -3 9 0 20 8 25 11 7 11
9 -2 9 -9 0 -19 -6 -21 -12z"/>
<path d="M396 716 c3 -9 13 -16 22 -16 8 0 13 1 11 3 -2 1 -12 9 -22 16 -15
12 -17 12 -11 -3z"/>
<path d="M1046 717 c3 -10 9 -15 12 -12 3 3 0 11 -7 18 -10 9 -11 8 -5 -6z"/>
<path d="M523 695 c-3 -9 -3 -19 1 -22 3 -4 6 1 6 10 0 8 6 18 13 20 9 4 9 6
-1 6 -7 1 -15 -6 -19 -14z"/>
<path d="M1006 694 c-23 -23 -20 -30 4 -9 11 10 20 20 20 22 0 7 -9 2 -24 -13z"/>
<path d="M1213 703 c-20 -8 -16 -53 5 -53 14 0 15 2 2 10 -12 8 -13 13 -2 30
7 11 11 20 10 19 -2 0 -9 -3 -15 -6z"/>
<path d="M1256 694 c-23 -23 -20 -30 4 -9 11 10 20 20 20 22 0 7 -9 2 -24 -13z"/>
<path d="M463 693 c9 -2 23 -2 30 0 6 3 -1 5 -18 5 -16 0 -22 -2 -12 -5z"/>
<path d="M1093 693 c9 -2 23 -2 30 0 6 3 -1 5 -18 5 -16 0 -22 -2 -12 -5z"/>
<path d="M705 680 c-9 -15 2 -27 30 -32 13 -3 22 -1 19 3 -3 5 -14 9 -25 9
-21 0 -26 16 -6 23 9 4 9 6 0 6 -6 1 -15 -3 -18 -9z"/>
<path d="M346 666 c3 -9 13 -16 22 -16 8 0 13 1 11 3 -2 1 -12 9 -22 16 -15
12 -17 12 -11 -3z"/>
<path d="M272 654 c10 -10 20 -16 22 -13 3 3 -5 11 -17 18 -21 13 -21 12 -5
-5z"/>
<path d="M488 664 c-14 -13 -8 -32 17 -55 13 -13 25 -28 25 -32 0 -14 -43 5
-62 27 -14 17 -17 18 -18 4 0 -9 13 -22 29 -29 20 -9 26 -16 18 -21 -8 -5 -7
-8 4 -8 19 0 45 27 36 37 -4 3 -2 12 4 19 8 10 6 19 -5 36 -9 12 -16 18 -16
12 0 -5 5 -15 12 -22 6 -6 9 -15 5 -18 -10 -10 -35 15 -39 38 -2 11 -6 16 -10
12z"/>
<path d="M547 649 c7 -7 15 -10 18 -7 3 3 -2 9 -12 12 -14 6 -15 5 -6 -5z"/>
<path d="M956 644 c-23 -23 -20 -30 4 -9 11 10 20 20 20 22 0 7 -9 2 -24 -13z"/>
<path d="M1142 646 c7 -8 15 -12 17 -11 5 6 -10 25 -20 25 -5 0 -4 -6 3 -14z"/>
<path d="M1295 651 c-3 -5 -1 -12 4 -15 5 -3 11 1 15 9 6 16 -9 21 -19 6z"/>
<path d="M1098 643 c7 -3 16 -2 19 1 4 3 -2 6 -13 5 -11 0 -14 -3 -6 -6z"/>
<path d="M1346 634 c-5 -14 -4 -15 9 -4 17 14 19 20 6 20 -5 0 -12 -7 -15 -16z"/>
<path d="M244 603 c-1 -13 1 -21 5 -16 3 4 10 10 14 14 4 3 2 11 -5 17 -10 8
-13 5 -14 -15z"/>
<path d="M392 605 c0 -16 2 -22 5 -12 2 9 2 23 0 30 -3 6 -5 -1 -5 -18z"/>
<path d="M783 624 c10 -3 17 -15 17 -29 0 -13 5 -27 11 -30 6 -5 4 -11 -7 -19
-15 -11 -13 -12 15 -8 30 4 31 5 12 18 -11 8 -21 27 -23 42 -2 18 -9 27 -23
29 -16 1 -16 1 -2 -3z"/>
<path d="M834 618 c-4 -7 -3 -8 4 -4 7 4 12 3 12 -2 0 -6 8 -13 17 -16 15 -6
15 -4 -2 14 -21 23 -22 24 -31 8z"/>
<path d="M896 616 c3 -8 13 -17 22 -21 13 -5 13 -2 -3 15 -21 24 -26 25 -19 6z"/>
<path d="M1192 605 c0 -16 2 -22 5 -12 2 9 2 23 0 30 -3 6 -5 -1 -5 -18z"/>
<path d="M1041 604 c0 -11 3 -14 6 -6 3 7 2 16 -1 19 -3 4 -6 -2 -5 -13z"/>
<path d="M1101 604 c0 -11 3 -14 6 -6 3 7 2 16 -1 19 -3 4 -6 -2 -5 -13z"/>
<path d="M1141 604 c0 -11 3 -14 6 -6 3 7 2 16 -1 19 -3 4 -6 -2 -5 -13z"/>
<path d="M348 588 c-8 -20 2 -38 20 -38 14 0 14 2 3 9 -8 5 -11 16 -8 25 4 9
2 16 -2 16 -5 0 -11 -6 -13 -12z"/>
<path d="M1340 591 c0 -6 4 -13 10 -16 6 -3 7 1 4 9 -7 18 -14 21 -14 7z"/>
<path d="M896 566 c3 -8 13 -17 22 -21 13 -5 13 -2 -3 15 -21 24 -26 25 -19 6z"/>
<path d="M946 566 c3 -8 13 -17 22 -21 13 -5 13 -2 -3 15 -21 24 -26 25 -19 6z"/>
<path d="M270 556 c0 -2 9 -6 20 -9 11 -3 18 -1 14 4 -5 9 -34 13 -34 5z"/>
<path d="M450 550 c0 -5 5 -10 11 -10 5 0 7 5 4 10 -3 6 -8 10 -11 10 -2 0 -4
-4 -4 -10z"/>
<path d="M1208 553 c7 -3 16 -2 19 1 4 3 -2 6 -13 5 -11 0 -14 -3 -6 -6z"/>
<path d="M1298 553 c7 -3 16 -2 19 1 4 3 -2 6 -13 5 -11 0 -14 -3 -6 -6z"/>
<path d="M555 541 c-12 -5 8 -6 46 -4 43 4 69 2 73 -6 4 -6 12 -11 19 -11 6 0
2 7 -9 15 -20 15 -96 19 -129 6z"/>
<path d="M996 533 c-6 -14 -5 -15 5 -6 7 7 10 15 7 18 -3 3 -9 -2 -12 -12z"/>
<path d="M1098 543 c7 -3 16 -2 19 1 4 3 -2 6 -13 5 -11 0 -14 -3 -6 -6z"/>
<path d="M250 517 c0 -10 8 -17 18 -17 9 0 13 4 7 8 -5 4 -13 11 -17 16 -5 5
-8 2 -8 -7z"/>
<path d="M493 523 c9 -2 23 -2 30 0 6 3 -1 5 -18 5 -16 0 -22 -2 -12 -5z"/>
<path d="M898 505 c3 -19 8 -23 15 -16 8 8 7 16 -5 27 -14 14 -15 14 -10 -11z"/>
<path d="M947 497 c1 -18 2 -35 2 -38 1 -4 8 -10 17 -13 14 -5 15 -4 5 8 -7 8
-10 24 -7 34 4 11 1 24 -6 30 -10 8 -13 3 -11 -21z"/>
<path d="M1196 516 c3 -8 13 -17 22 -21 13 -5 13 -2 -3 15 -21 24 -26 25 -19
6z"/>
<path d="M612 500 c-12 -12 -22 -24 -22 -27 0 -4 11 4 25 17 23 22 29 30 22
30 -2 0 -13 -9 -25 -20z"/>
<path d="M356 495 c-18 -18 -11 -45 13 -45 14 0 14 2 1 10 -12 8 -13 13 -2 30
15 24 9 26 -12 5z"/>
<path d="M406 494 c-23 -23 -20 -30 4 -9 11 10 20 20 20 22 0 7 -9 2 -24 -13z"/>
<path d="M558 503 c7 -3 16 -2 19 1 4 3 -2 6 -13 5 -11 0 -14 -3 -6 -6z"/>
<path d="M728 503 c6 -2 18 -2 25 0 6 3 1 5 -13 5 -14 0 -19 -2 -12 -5z"/>
<path d="M1012 501 c-8 -5 -15 -24 -16 -44 -1 -28 1 -33 12 -25 7 6 10 19 6
30 -3 10 0 25 6 33 14 17 11 19 -8 6z"/>
<path d="M1049 499 c0 -8 -1 -28 -2 -46 -2 -22 1 -29 9 -22 7 5 11 23 9 39 -2
32 -14 54 -16 29z"/>
<path d="M1296 501 c-4 -5 3 -7 14 -4 23 6 26 13 6 13 -8 0 -17 -4 -20 -9z"/>
<path d="M446 484 c-5 -14 -4 -15 9 -4 17 14 19 20 6 20 -5 0 -12 -7 -15 -16z"/>
<path d="M496 484 c-6 -15 -4 -15 11 -3 10 7 20 15 22 16 2 2 -3 3 -11 3 -9 0
-19 -7 -22 -16z"/>
<path d="M646 484 c-5 -14 -4 -15 9 -4 17 14 19 20 6 20 -5 0 -12 -7 -15 -16z"/>
<path d="M1096 485 c-3 -8 2 -21 10 -30 21 -21 27 -19 12 5 -11 17 -10 22 2
30 13 8 13 10 -1 10 -9 0 -19 -7 -23 -15z"/>
<path d="M1146 484 c-6 -15 -4 -15 11 -3 10 7 20 15 22 16 2 2 -3 3 -11 3 -9
0 -19 -7 -22 -16z"/>
<path d="M1196 466 c3 -9 13 -16 22 -16 8 0 13 1 11 3 -2 1 -12 9 -22 16 -15
12 -17 12 -11 -3z"/>
<path d="M702 445 c0 -16 2 -22 5 -12 2 9 2 23 0 30 -3 6 -5 -1 -5 -18z"/>
<path d="M240 449 c0 -5 9 -9 20 -9 11 0 20 2 20 4 0 2 -9 6 -20 9 -11 3 -20
1 -20 -4z"/>
<path d="M406 444 c-23 -23 -20 -30 4 -9 11 10 20 20 20 22 0 7 -9 2 -24 -13z"/>
<path d="M456 444 c-23 -23 -20 -30 4 -9 11 10 20 20 20 22 0 7 -9 2 -24 -13z"/>
<path d="M506 444 c-23 -23 -20 -30 4 -9 11 10 20 20 20 22 0 7 -9 2 -24 -13z"/>
<path d="M556 445 c-17 -17 -12 -40 10 -49 11 -4 12 -2 2 14 -9 14 -9 22 1 34
17 20 7 21 -13 1z"/>
<path d="M606 445 c-18 -18 -11 -45 13 -45 14 0 14 2 1 10 -12 8 -13 13 -2 30
15 24 9 26 -12 5z"/>
<path d="M656 444 c-23 -23 -20 -30 4 -9 11 10 20 20 20 22 0 7 -9 2 -24 -13z"/>
<path d="M751 444 c0 -11 3 -14 6 -6 3 7 2 16 -1 19 -3 4 -6 -2 -5 -13z"/>
<path d="M786 453 c5 -5 12 -12 16 -18 4 -6 8 -2 8 8 0 9 -7 17 -17 17 -9 0
-12 -3 -7 -7z"/>
<path d="M851 444 c0 -11 3 -14 6 -6 3 7 2 16 -1 19 -3 4 -6 -2 -5 -13z"/>
<path d="M1320 450 l-25 -8 28 -1 c15 -1 27 4 27 9 0 6 -1 10 -2 9 -2 -1 -14
-5 -28 -9z"/>
<path d="M900 440 c0 -5 7 -7 15 -4 8 4 15 8 15 10 0 2 -7 4 -15 4 -8 0 -15
-4 -15 -10z"/>
<path d="M1146 434 c-6 -15 -4 -15 11 -3 10 7 20 15 22 16 2 2 -3 3 -11 3 -9
0 -19 -7 -22 -16z"/>
<path d="M945 400 c0 -26 2 -27 15 -15 13 13 13 17 0 30 -13 13 -15 11 -15
-15z"/>
<path d="M1097 397 c1 -18 2 -35 2 -39 1 -5 9 -8 19 -8 13 0 14 2 3 9 -8 5
-11 16 -7 28 4 12 1 25 -6 31 -10 8 -13 3 -11 -21z"/>
<path d="M1196 416 c3 -8 13 -17 22 -21 13 -5 13 -2 -3 15 -21 24 -26 25 -19
6z"/>
<path d="M740 411 c0 -10 19 -25 25 -20 1 2 -3 10 -11 17 -8 7 -14 8 -14 3z"/>
<path d="M356 395 c-18 -18 -11 -45 13 -45 14 0 14 2 1 10 -12 8 -13 13 -2 30
15 24 9 26 -12 5z"/>
<path d="M406 394 c-23 -23 -20 -30 4 -9 11 10 20 20 20 22 0 7 -9 2 -24 -13z"/>
<path d="M456 395 c-18 -18 -11 -45 13 -45 14 0 14 2 1 10 -12 8 -13 13 -2 30
15 24 9 26 -12 5z"/>
<path d="M656 395 c-17 -17 -12 -40 10 -49 11 -4 12 -2 2 14 -9 14 -9 22 1 34
17 20 7 21 -13 1z"/>
<path d="M788 403 c7 -3 16 -2 19 1 4 3 -2 6 -13 5 -11 0 -14 -3 -6 -6z"/>
<path d="M1006 395 c-18 -18 -11 -45 13 -45 14 0 14 2 1 10 -12 8 -13 13 -2
30 15 24 9 26 -12 5z"/>
<path d="M1056 394 c-23 -23 -20 -30 4 -9 11 10 20 20 20 22 0 7 -9 2 -24 -13z"/>
<path d="M1300 395 c0 -8 2 -15 4 -15 2 0 6 7 10 15 3 8 1 15 -4 15 -6 0 -10
-7 -10 -15z"/>
<path d="M496 384 c-6 -15 -4 -15 11 -3 10 7 20 15 22 16 2 2 -3 3 -11 3 -9 0
-19 -7 -22 -16z"/>
<path d="M896 384 c-6 -15 -4 -15 11 -3 10 7 20 15 22 16 2 2 -3 3 -11 3 -9 0
-19 -7 -22 -16z"/>
<path d="M1146 384 c-6 -15 -4 -15 11 -3 10 7 20 15 22 16 2 2 -3 3 -11 3 -9
0 -19 -7 -22 -16z"/>
<path d="M546 366 c3 -9 13 -16 22 -16 8 0 13 1 11 3 -2 1 -12 9 -22 16 -15
12 -17 12 -11 -3z"/>
<path d="M696 365 c4 -8 11 -15 16 -15 6 0 5 6 -2 15 -7 8 -14 15 -16 15 -2 0
-1 -7 2 -15z"/>
<path d="M1196 366 c3 -9 13 -16 22 -16 8 0 13 1 11 3 -2 1 -12 9 -22 16 -15
12 -17 12 -11 -3z"/>
<path d="M783 353 c9 -2 23 -2 30 0 6 3 -1 5 -18 5 -16 0 -22 -2 -12 -5z"/>
<path d="M228 343 c7 -3 16 -2 19 1 4 3 -2 6 -13 5 -11 0 -14 -3 -6 -6z"/>
<path d="M849 343 c-5 -55 -3 -71 9 -61 7 6 10 19 6 31 -4 12 -1 23 7 28 11 7
10 9 -3 9 -10 0 -18 -3 -19 -7z"/>
<path d="M896 334 c-5 -14 -4 -15 9 -4 17 14 19 20 6 20 -5 0 -12 -7 -15 -16z"/>
<path d="M1348 343 c7 -3 16 -2 19 1 4 3 -2 6 -13 5 -11 0 -14 -3 -6 -6z"/>
<path d="M696 316 c3 -9 13 -16 22 -16 8 0 13 1 11 3 -2 1 -12 9 -22 16 -15
12 -17 12 -11 -3z"/>
<path d="M1151 304 c0 -11 3 -14 6 -6 3 7 2 16 -1 19 -3 4 -6 -2 -5 -13z"/>
<path d="M261 301 c-7 -5 -12 -14 -9 -21 3 -9 8 -8 20 4 21 20 25 20 32 -1 4
-14 4 -14 3 2 -2 22 -25 30 -46 16z"/>
<path d="M547 289 c4 -13 8 -18 11 -10 2 7 -1 18 -6 23 -8 8 -9 4 -5 -13z"/>
<path d="M756 295 c-17 -17 -12 -40 10 -49 11 -4 12 -2 2 14 -9 14 -9 22 1 34
17 20 7 21 -13 1z"/>
<path d="M945 299 c-11 -16 -1 -19 13 -3 7 8 8 14 3 14 -5 0 -13 -5 -16 -11z"/>
<path d="M1287 303 c-12 -11 -8 -23 7 -23 8 0 16 7 20 15 5 15 -14 21 -27 8z"/>
<path d="M640 293 c0 -6 8 -17 18 -24 16 -13 16 -13 2 6 -8 11 -16 22 -17 24
-2 2 -3 0 -3 -6z"/>
<path d="M799 293 c-5 -55 -3 -71 9 -61 7 6 10 19 6 31 -4 12 -1 23 7 28 11 7
10 9 -3 9 -10 0 -18 -3 -19 -7z"/>
<path d="M440 260 c0 -11 4 -20 9 -20 5 0 7 9 4 20 -3 11 -7 20 -9 20 -2 0 -4
-9 -4 -20z"/>
<path d="M500 267 c0 -10 8 -17 18 -17 9 0 13 4 7 8 -5 4 -13 11 -17 16 -5 5
-8 2 -8 -7z"/>
<path d="M1137 260 c-3 -11 -1 -20 4 -20 5 0 9 9 9 20 0 11 -2 20 -4 20 -2 0
-6 -9 -9 -20z"/>
<path d="M593 256 c-9 -11 -7 -14 12 -12 17 1 21 4 13 14 -12 14 -10 14 -25
-2z"/>
<path d="M962 250 c-12 -12 -22 -24 -22 -27 0 -4 11 4 25 17 23 22 29 30 22
30 -2 0 -13 -9 -25 -20z"/>
<path d="M278 253 c7 -3 16 -2 19 1 4 3 -2 6 -13 5 -11 0 -14 -3 -6 -6z"/>
<path d="M1058 253 c7 -3 16 -2 19 1 4 3 -2 6 -13 5 -11 0 -14 -3 -6 -6z"/>
<path d="M1243 245 c-3 -9 -3 -18 -1 -21 3 -3 8 4 11 16 6 23 -1 27 -10 5z"/>
<path d="M1298 253 c7 -3 16 -2 19 1 4 3 -2 6 -13 5 -11 0 -14 -3 -6 -6z"/>
<path d="M230 240 c0 -5 5 -10 10 -10 6 0 10 5 10 10 0 6 -4 10 -10 10 -5 0
-10 -4 -10 -10z"/>
<path d="M341 234 c0 -11 3 -14 6 -6 3 7 2 16 -1 19 -3 4 -6 -2 -5 -13z"/>
<path d="M995 240 c3 -5 8 -10 11 -10 2 0 4 5 4 10 0 6 -5 10 -11 10 -5 0 -7
-4 -4 -10z"/>
<path d="M1340 240 c0 -5 5 -10 10 -10 6 0 10 5 10 10 0 6 -4 10 -10 10 -5 0
-10 -4 -10 -10z"/>
<path d="M675 210 l-30 -8 33 -1 c17 0 32 4 32 9 0 6 -1 9 -2 9 -2 -1 -16 -5
-33 -9z"/>
<path d="M578 203 c7 -3 16 -2 19 1 4 3 -2 6 -13 5 -11 0 -14 -3 -6 -6z"/>
<path d="M893 203 c9 -2 23 -2 30 0 6 3 -1 5 -18 5 -16 0 -22 -2 -12 -5z"/>
<path d="M998 203 c7 -3 16 -2 19 1 4 3 -2 6 -13 5 -11 0 -14 -3 -6 -6z"/>
<path d="M1460 893 c0 -4 19 -26 42 -50 l42 -43 -24 -25 c-27 -29 -37 -27 -20
4 12 23 -3 66 -21 56 -10 -7 -13 -108 -3 -118 8 -7 84 68 84 83 0 11 -83 100
-93 100 -4 0 -7 -3 -7 -7z"/>
<path d="M70 845 l-44 -45 49 -50 c27 -28 53 -50 57 -50 15 0 8 29 -9 42 -10
7 -26 23 -37 35 -18 22 -18 23 3 49 12 15 21 23 21 19 0 -5 -7 -17 -17 -27
-15 -17 -15 -19 2 -38 29 -32 35 -24 35 45 0 36 -4 65 -8 65 -4 0 -28 -20 -52
-45z"/>
<path d="M10 403 l0 -388 66 66 65 65 -1 264 -1 264 -57 58 c-31 31 -60 58
-64 58 -5 0 -8 -174 -8 -387z"/>
<path d="M1523 728 l-63 -64 0 -259 0 -259 58 -61 57 -60 -60 58 -61 57 -260
0 -260 0 -64 -65 -64 -65 381 0 c310 0 383 3 392 14 8 9 10 120 9 390 l-3 377
-62 -63z"/>
<path d="M87 82 c-31 -32 -57 -61 -57 -65 0 -4 172 -7 382 -7 l382 0 -64 65
-64 65 -261 0 -261 0 -57 -58z"/>
<path d="M843 98 l-42 -42 -26 24 c-28 27 -27 37 4 20 23 -12 66 3 56 21 -7
10 -108 13 -118 3 -7 -8 68 -84 83 -84 11 0 100 83 100 93 0 16 -18 5 -57 -35z"/>
</g>
</svg>
